{"title":"Despicable.Me.2.2013.NEWSOURCE.720p.TS.AC3-MURDER","uid":8673064,"size":2912857369,"categoryP":"video","categoryS":"hd___movies","magnet":"?xt=urn:btih:27d0d2be7da2f7dac7441b00ba776341dd02de72&amp;dn=Despicable.Me.2.2013.NEWSOURCE.720p.TS.AC3-MURDER&amp;tr=udp%3A%2F%2Ftracker.openbittorrent.com%3A80&amp;tr=udp%3A%2F%2Fopen.demonii.com%3A1337&amp;tr=udp%3A%2F%2Ftracker.coppersurfer.tk%3A6969&amp;tr=udp%3A%2F%2Fexodus.desync.com%3A6969","seeders":13,"leechers":1,"uploader":"Thhaque","files":-1,"time":1373535674,"description":"Despicable Me 2 2013 NEWSOURCE 720p TS AC3-MURDER\n\nimage\nDirector : Pierre Coffin | Chris Renaud\nCast : Steve Carell, Kristen Wiig, Benjamin Bratt, Miranda Cosgrove, Ken Jeong and more.\nCountry : USA\nYear : 2013\nRuntime : 93 min.\nGenre : Animation | Comedy | Crime | Family\n\nInfo:\nGeneral\nComplete name : Despicable Me 2 2013 NEWSOURCE 720p AC3 MURDER.mkv\nFormat : Matroska\nFormat version : Version 2\nFile size : 2.66 GiB\nDuration : 1h 33mn\nOverall bit rate : 4 055 Kbps\nEncoded date : UTC 2013-07-10 13:50:55\n\nVideo\nID : 1\nFormat : MPEG-4 Visual\nCodec ID : V_MS/VFW/FOURCC / XVID\nCodec ID/Hint : XviD\nDuration : 1h 33mn\nBit rate : 3 847 Kbps\nWidth : 1 280 pixels\nHeight : 694 pixels\nDisplay aspect ratio : 1.85:1\nFrame rate mode : Constant\nFrame rate : 20.000 fps\nColor space : YUV\nChroma subsampling : 4:2:0\nBit depth : 8 bits\nScan type : Progressive\nCompression mode : Lossy\nBits/(Pixel*Frame) : 0.217\nStream size : 2.52 GiB (95%)\nWriting library : XviD 64\nDefault : Yes\nForced : No\n\nAudio\nID : 2\nFormat : AC-3\nFormat/Info : Audio Coding 3\nMode extension : CM (complete main)\nFormat settings, Endianness : Big\nCodec ID : A_AC3\nDuration : 1h 33mn\nBit rate mode : Constant\nBit rate : 128 Kbps\nChannel(s) : 2 channels\nChannel positions : Front: L R\nSampling rate : 44.1 KHz\nBit depth : 16 bits\nCompression mode : Lossy\nStream size : 85.9 MiB (3%)\nDefault : Yes\nForced : No\n\n.: Plot :.\nWhile Gru, the ex-supervillain is adjusting to family life and an attempted honest living in the jam business, a secret Arctic laboratory is stolen. The Anti-Villain League decides it needs an insider's help and recruits Gru in the investigation. Together with the eccentric AVL agent, Lucy Wilde, Gru concludes that his prime suspect is the presumed dead supervillain, El Macho, whose his teenage son is also making the moves on his eldest daughter, Margo. Seemingly blinded by his overprotectiveness of his children and his growing mutual attraction to Lucy, Gru seems on the wrong track even as his minions are being quietly kidnapped en masse for some malevolent purpose.\n\nScreenshots:\n &lt;a href=&quot;\nhttp://s20.postimg.org/svlr5hsvh/acmzr_Vx_M.jpg&quot; rel=&quot;nofollow&quot; target=&quot;_NEW&quot;&gt;\nhttp://s20.postimg.org/svlr5hsvh/acmzr_Vx_M.jpg&lt;/a&gt; &lt;a href=&quot;\nhttp://s20.postimg.org/bwcsq8hnx/acpq_Ehwh.jpg&quot; rel=&quot;nofollow&quot; target=&quot;_NEW&quot;&gt;\nhttp://s20.postimg.org/bwcsq8hnx/acpq_Ehwh.jpg&lt;/a&gt; &lt;a href=&quot;\nhttp://s20.postimg.org/g6rgltmr1/adsb5_E4g.jpg&quot; rel=&quot;nofollow&quot; target=&quot;_NEW&quot;&gt;\nhttp://s20.postimg.org/g6rgltmr1/adsb5_E4g.jpg&lt;/a&gt; &lt;a href=&quot;\nhttp://s20.postimg.org/psl124dwt/abj_Z8fx_N.jpg&quot; rel=&quot;nofollow&quot; target=&quot;_NEW&quot;&gt;\nhttp://s20.postimg.org/psl124dwt/abj_Z8fx_N.jpg&lt;/a&gt;","torrent":{"xt":"urn:btih:27d0d2be7da2f7dac7441b00ba776341dd02de72","amp;dn":"Despicable.Me.2.2013.NEWSOURCE.720p.TS.AC3-MURDER","amp;tr":["udp%3A%2F%2Ftracker.openbittorrent.com%3A80","udp%3A%2F%2Fopen.demonii.com%3A1337","udp%3A%2F%2Ftracker.coppersurfer.tk%3A6969","udp%3A%2F%2Fexodus.desync.com%3A6969"],"infoHash":"27d0d2be7da2f7dac7441b00ba776341dd02de72","infoHashBuffer":{"type":"Buffer","data":[39,208,210,190,125,162,247,218,199,68,27,0,186,119,99,65,221,2,222,114]},"announce":[],"urlList":[]}}